<svg xmlns="http://www.w3.org/2000/svg" viewBox="0 0 73.58 88.17"><defs><style>.cls-1{fill:#4c0082;}.cls-2{fill:#d1009a;}.cls-3{fill:#4a26ed;}</style></defs><title>Asset 5</title><g id="Layer_2" data-name="Layer 2"><g id="Layer_1-2" data-name="Layer 1"><path class="cls-1" d="M14.15,40.06c0,.45,0,.89,0,1.34A21.31,21.31,0,0,0,40.37,11.72h0C26.1,13.2,14.75,25.53,14.15,40.06Z"/><path class="cls-2" d="M14.15,40.06c.6-14.53,12-26.86,26.21-28.34h0A21.33,21.33,0,1,0,14.12,41.4C14.13,41,14.13,40.51,14.15,40.06Z"/><path class="cls-3" d="M72.64,33.71C69,19.51,55.32,10.17,40.37,11.72A21.3,21.3,0,0,1,14.12,41.4a44.15,44.15,0,0,0,8.36,26.25A69.2,69.2,0,0,0,44.31,87.74a2.92,2.92,0,0,0,4.44-2.49V74a4.22,4.22,0,0,1,2.78-4c1.26-.46,2.49-.91,3.7-1.41A29.73,29.73,0,0,0,72.64,33.71Z"/></g></g></svg>